<?xml version="1.0" standalone="no"?><!-- Generator: Gravit.io --><svg xmlns="http://www.w3.org/2000/svg" xmlns:xlink="http://www.w3.org/1999/xlink" style="isolation:isolate" viewBox="-10 -10 270 270" width="270" height="270"><defs><clipPath id="_clipPath_gic2S8q8IeQv99pAsMR8kwDeyOSOCpld"><rect width="250" height="250"/></clipPath></defs><g clip-path="url(#_clipPath_gic2S8q8IeQv99pAsMR8kwDeyOSOCpld)"><g style="isolation:isolate" id="Layer 0"><line x1="41.25" y1="217.5" x2="41.25" y2="67.5" vector-effect="non-scaling-stroke" stroke-width="0.816" stroke="rgb(0,0,0)" stroke-linejoin="miter" stroke-linecap="square" stroke-miterlimit="3"/><path d=" M 45.332 74.998 L 41.25 66.833 L 37.168 74.998" fill="none" stroke="rgb(0,0,0)" stroke-width="0.816496580927726"/><g transform="matrix(0,-1,1,0,5,191.5)"><text transform="matrix(1,0,0,1,0,9.863)" style="font-family:&quot;Oldenburg&quot;;font-weight:400;font-size:10px;font-style:normal;fill:#000000;stroke:none;">Solution Maturity</text></g><g transform="matrix(1,0,0,1,49.25,227.5)"><text transform="matrix(1,0,0,1,0.239,9.863)" style="font-family:&quot;Oldenburg&quot;;font-weight:400;font-size:10px;font-style:normal;fill:#000000;stroke:none;">Application Domain Maturity</text></g><g transform="matrix(1,0,0,1,147.25,211.25)"><text transform="matrix(1,0,0,1,0,9.863)" style="font-family:&quot;Oldenburg&quot;;font-weight:400;font-size:10px;font-style:normal;fill:#000000;stroke:none;">Low</text></g><g transform="matrix(1,0,0,1,64.25,211.25)"><text transform="matrix(1,0,0,1,0,9.863)" style="font-family:&quot;Oldenburg&quot;;font-weight:400;font-size:10px;font-style:normal;fill:#000000;stroke:none;">High</text></g><g transform="matrix(0,-1,1,0,21.25,122.5)"><text transform="matrix(1,0,0,1,0,9.863)" style="font-family:&quot;Oldenburg&quot;;font-weight:400;font-size:10px;font-style:normal;fill:#000000;stroke:none;">Low</text></g><g transform="matrix(0,-1,1,0,21.25,190.5)"><text transform="matrix(1,0,0,1,0,9.863)" style="font-family:&quot;Oldenburg&quot;;font-weight:400;font-size:10px;font-style:normal;fill:#000000;stroke:none;">High</text></g><line x1="31.25" y1="207.5" x2="235" y2="206.833" vector-effect="non-scaling-stroke" stroke-width="0.845" stroke="rgb(0,0,0)" stroke-linejoin="miter" stroke-linecap="square" stroke-miterlimit="3"/><path d=" M 227.277 211.084 L 235.714 206.831 L 227.249 202.633" fill="none" stroke="rgb(0,0,0)" stroke-width="0.8451542547285166"/><line x1="59.25" y1="137.5" x2="199.25" y2="137.5"/><g style="isolation: isolate;"><line x1="59.25" y1="137.5" x2="199.25" y2="137.5" fill="none" vector-effect="non-scaling-stroke" stroke-width="1" stroke-dasharray="1,2" stroke="rgb(0,0,0)" stroke-linejoin="miter" stroke-linecap="square" stroke-miterlimit="3"/><line x1="59.25" y1="137.5" x2="199.25" y2="137.5" fill="none" vector-effect="non-scaling-stroke" stroke-width="1" stroke-dasharray="1,2" stroke="rgb(0,0,0)" stroke-linejoin="miter" stroke-linecap="square" stroke-miterlimit="3"/></g><line x1="129.25" y1="192.5" x2="129.25" y2="77.5"/><g style="isolation: isolate;"><line x1="129.25" y1="192.5" x2="129.25" y2="77.5" fill="none" vector-effect="non-scaling-stroke" stroke-width="1" stroke-dasharray="1,2" stroke="rgb(0,0,0)" stroke-linejoin="miter" stroke-linecap="square" stroke-miterlimit="3"/><line x1="129.25" y1="192.5" x2="129.25" y2="77.5" fill="none" vector-effect="non-scaling-stroke" stroke-width="1" stroke-dasharray="1,2" stroke="rgb(0,0,0)" stroke-linejoin="miter" stroke-linecap="square" stroke-miterlimit="3"/></g><g transform="matrix(1,0,0,1,49,97.5)"><text transform="matrix(1,0,0,1,0,9.863)" style="font-family:&quot;Oldenburg&quot;;font-weight:400;font-size:10px;font-style:normal;fill:#000000;stroke:none;">Improvement</text></g><g transform="matrix(1,0,0,1,141.25,97.5)"><text transform="matrix(1,0,0,1,0,9.863)" style="font-family:&quot;Oldenburg&quot;;font-weight:400;font-size:10px;font-style:normal;fill:#000000;stroke:none;">Invention</text></g><g transform="matrix(1,0,0,1,141.125,161.382)"><text transform="matrix(1,0,0,1,0,9.863)" style="font-family:&quot;Oldenburg&quot;;font-weight:400;font-size:10px;font-style:normal;fill:#000000;stroke:none;">Exaptation</text></g><g transform="matrix(1,0,0,1,58.313,157.5)"><text transform="matrix(1,0,0,1,5.293,9.863)" style="font-family:&quot;Oldenburg&quot;;font-weight:400;font-size:10px;font-style:normal;fill:#000000;stroke:none;">Routine </text><text transform="matrix(1,0,0,1,7.778,22.363)" style="font-family:&quot;Oldenburg&quot;;font-weight:400;font-size:10px;font-style:normal;fill:#000000;stroke:none;">Design</text></g></g></g></svg>