<?xml version="1.0" standalone="no"?><!-- Generator: Gravit.io --><svg xmlns="http://www.w3.org/2000/svg" xmlns:xlink="http://www.w3.org/1999/xlink" style="isolation:isolate" viewBox="0 0 800 370" width="800" height="370"><defs><clipPath id="_clipPath_kjfTKluAfkciJEg2AdqmioFt3cOZB8eN"><rect width="800" height="370"/></clipPath></defs><g clip-path="url(#_clipPath_kjfTKluAfkciJEg2AdqmioFt3cOZB8eN)"><g transform="matrix(1,0,0,1,18,10.5)"><text transform="matrix(1,0,0,1,0,18.105)" style="font-family:&quot;Arimo&quot;;font-weight:700;font-size:20px;font-style:normal;fill:#000000;stroke:none;">Environment</text></g><g transform="matrix(1,0,0,1,322.5,11.5)"><text transform="matrix(1,0,0,1,0,18.105)" style="font-family:&quot;Arimo&quot;;font-weight:700;font-size:20px;font-style:normal;fill:#000000;stroke:none;">IS Research</text></g><g id="Group"><g id="Group"><rect x="468.625" y="1.5" width="120" height="40" transform="matrix(1,0,0,1,0,0)" fill="rgb(235,235,235)" vector-effect="non-scaling-stroke" stroke-width="1" stroke="rgb(235,235,235)" stroke-linejoin="miter" stroke-linecap="square" stroke-miterlimit="3"/><g transform="matrix(1,0,0,1,468.625,10.328)"><text transform="matrix(1,0,0,1,33.142,18.105)" style="font-family:&quot;Arimo&quot;;font-weight:700;font-size:20px;font-style:normal;fill:#000000;stroke:none;">Rigor</text></g></g></g><g id="Group"><rect x="175" y="1.5" width="120" height="40" transform="matrix(1,0,0,1,0,0)" fill="rgb(235,235,235)" vector-effect="non-scaling-stroke" stroke-width="1" stroke="rgb(235,235,235)" stroke-linejoin="miter" stroke-linecap="square" stroke-miterlimit="3"/><g transform="matrix(1,0,0,1,173.91,10.328)"><text transform="matrix(1,0,0,1,10.067,18.105)" style="font-family:&quot;Arimo&quot;;font-weight:700;font-size:20px;font-style:normal;fill:#000000;stroke:none;">Relevance</text></g></g><g transform="matrix(1,0,0,1,596,11.5)"><text transform="matrix(1,0,0,1,0,18.105)" style="font-family:&quot;Arimo&quot;;font-weight:700;font-size:20px;font-style:normal;fill:#000000;stroke:none;">Knowlegde Base</text></g><g id="Group"><g transform="matrix(1,0,0,1,13,56.5)"><text transform="matrix(1,0,0,1,0,18.105)" style="font-family:&quot;Arimo&quot;;font-weight:700;font-size:20px;font-style:normal;fill:#000000;stroke:none;">People</text></g><g transform="matrix(1,0,0,1,17,81.5)"><text transform="matrix(1,0,0,1,0,14.484)" style="font-family:&quot;Arimo&quot;;font-weight:400;font-size:16px;font-style:normal;fill:#000000;stroke:none;">Roles, Capabilities, </text><text transform="matrix(1,0,0,1,0,32.359)" style="font-family:&quot;Arimo&quot;;font-weight:400;font-size:16px;font-style:normal;fill:#000000;stroke:none;">Charactertistics</text></g></g><g id="Group"><g transform="matrix(1,0,0,1,13,126.5)"><text transform="matrix(1,0,0,1,0,18.105)" style="font-family:&quot;Arimo&quot;;font-weight:700;font-size:20px;font-style:normal;fill:#000000;stroke:none;">Organizations</text></g><g transform="matrix(1,0,0,1,17,151.5)"><text transform="matrix(1,0,0,1,0,14.484)" style="font-family:&quot;Arimo&quot;;font-weight:400;font-size:16px;font-style:normal;fill:#000000;stroke:none;">Strategies, </text><text transform="matrix(1,0,0,1,0,32.359)" style="font-family:&quot;Arimo&quot;;font-weight:400;font-size:16px;font-style:normal;fill:#000000;stroke:none;">Structure, </text><text transform="matrix(1,0,0,1,0,50.234)" style="font-family:&quot;Arimo&quot;;font-weight:400;font-size:16px;font-style:normal;fill:#000000;stroke:none;">Processes</text></g></g><g id="Group"><g transform="matrix(1,0,0,1,13,215)"><text transform="matrix(1,0,0,1,0,18.105)" style="font-family:&quot;Arimo&quot;;font-weight:700;font-size:20px;font-style:normal;fill:#000000;stroke:none;">Technology</text></g><g transform="matrix(1,0,0,1,17,240)"><text transform="matrix(1,0,0,1,0,14.484)" style="font-family:&quot;Arimo&quot;;font-weight:400;font-size:16px;font-style:normal;fill:#000000;stroke:none;">Infrastructure, </text><text transform="matrix(1,0,0,1,0,32.359)" style="font-family:&quot;Arimo&quot;;font-weight:400;font-size:16px;font-style:normal;fill:#000000;stroke:none;">Applications, </text><text transform="matrix(1,0,0,1,0,50.234)" style="font-family:&quot;Arimo&quot;;font-weight:400;font-size:16px;font-style:normal;fill:#000000;stroke:none;">Communications </text><text transform="matrix(1,0,0,1,0,68.109)" style="font-family:&quot;Arimo&quot;;font-weight:400;font-size:16px;font-style:normal;fill:#000000;stroke:none;">Architecture</text></g></g><g id="Group"><g transform="matrix(1,0,0,1,306,56.5)"><text transform="matrix(1,0,0,1,0,18.105)" style="font-family:&quot;Arimo&quot;;font-weight:700;font-size:20px;font-style:normal;fill:#000000;stroke:none;">Develop/Build</text></g><g transform="matrix(1,0,0,1,310,81.5)"><text transform="matrix(1,0,0,1,0,14.484)" style="font-family:&quot;Arimo&quot;;font-weight:400;font-size:16px;font-style:normal;fill:#000000;stroke:none;">Theories, </text><text transform="matrix(1,0,0,1,0,32.359)" style="font-family:&quot;Arimo&quot;;font-weight:400;font-size:16px;font-style:normal;fill:#000000;stroke:none;">Artifacts</text></g></g><g id="Group"><g transform="matrix(1,0,0,1,306,215)"><text transform="matrix(1,0,0,1,0,18.105)" style="font-family:&quot;Arimo&quot;;font-weight:700;font-size:20px;font-style:normal;fill:#000000;stroke:none;">Justify/Evaluate</text></g><g transform="matrix(1,0,0,1,310,237.344)"><text transform="matrix(1,0,0,1,0,14.484)" style="font-family:&quot;Arimo&quot;;font-weight:400;font-size:16px;font-style:normal;fill:#000000;stroke:none;">Analytical, </text><text transform="matrix(1,0,0,1,0,32.359)" style="font-family:&quot;Arimo&quot;;font-weight:400;font-size:16px;font-style:normal;fill:#000000;stroke:none;">Case study, </text><text transform="matrix(1,0,0,1,0,50.234)" style="font-family:&quot;Arimo&quot;;font-weight:400;font-size:16px;font-style:normal;fill:#000000;stroke:none;">Experimental, </text><text transform="matrix(1,0,0,1,0,68.109)" style="font-family:&quot;Arimo&quot;;font-weight:400;font-size:16px;font-style:normal;fill:#000000;stroke:none;">Simulation</text></g></g><g id="Group"><g transform="matrix(1,0,0,1,598,57.078)"><text transform="matrix(1,0,0,1,0,18.105)" style="font-family:&quot;Arimo&quot;;font-weight:700;font-size:20px;font-style:normal;fill:#000000;stroke:none;">Methodologies</text></g><g transform="matrix(1,0,0,1,601.951,82.391)"><text transform="matrix(1,0,0,1,0,14.484)" style="font-family:&quot;Arimo&quot;;font-weight:400;font-size:16px;font-style:normal;fill:#000000;stroke:none;">Theories, </text><text transform="matrix(1,0,0,1,0,32.359)" style="font-family:&quot;Arimo&quot;;font-weight:400;font-size:16px;font-style:normal;fill:#000000;stroke:none;">Frameworks, </text><text transform="matrix(1,0,0,1,0,50.234)" style="font-family:&quot;Arimo&quot;;font-weight:400;font-size:16px;font-style:normal;fill:#000000;stroke:none;">Constructs, </text><text transform="matrix(1,0,0,1,0,68.109)" style="font-family:&quot;Arimo&quot;;font-weight:400;font-size:16px;font-style:normal;fill:#000000;stroke:none;">Models, Methods, </text><text transform="matrix(1,0,0,1,0,85.984)" style="font-family:&quot;Arimo&quot;;font-weight:400;font-size:16px;font-style:normal;fill:#000000;stroke:none;">Instantiations</text></g></g><g id="Group"><g transform="matrix(1,0,0,1,598,195)"><text transform="matrix(1,0,0,1,0,18.105)" style="font-family:&quot;Arimo&quot;;font-weight:700;font-size:20px;font-style:normal;fill:#000000;stroke:none;">Foundations</text></g><g transform="matrix(1,0,0,1,601.951,220)"><text transform="matrix(1,0,0,1,0,14.484)" style="font-family:&quot;Arimo&quot;;font-weight:400;font-size:16px;font-style:normal;fill:#000000;stroke:none;">Data analysis </text><text transform="matrix(1,0,0,1,0,32.359)" style="font-family:&quot;Arimo&quot;;font-weight:400;font-size:16px;font-style:normal;fill:#000000;stroke:none;">techniques, </text><text transform="matrix(1,0,0,1,0,50.234)" style="font-family:&quot;Arimo&quot;;font-weight:400;font-size:16px;font-style:normal;fill:#000000;stroke:none;">Formalisms, </text><text transform="matrix(1,0,0,1,0,68.109)" style="font-family:&quot;Arimo&quot;;font-weight:400;font-size:16px;font-style:normal;fill:#000000;stroke:none;">Measures, </text><text transform="matrix(1,0,0,1,0,85.984)" style="font-family:&quot;Arimo&quot;;font-weight:400;font-size:16px;font-style:normal;fill:#000000;stroke:none;">Validation criteria</text></g></g><g transform="matrix(1,0,0,1,319.5,153.313)"><text transform="matrix(1,0,0,1,0,14.484)" style="font-family:&quot;Arimo&quot;;font-weight:400;font-size:16px;font-style:normal;fill:#000000;stroke:none;">Assess</text></g><g transform="matrix(1,0,0,1,470.75,260)"><text transform="matrix(1,0,0,1,11.82,14.484)" style="font-family:&quot;Arimo&quot;;font-weight:400;font-size:16px;font-style:normal;fill:#000000;stroke:none;">Additions to </text><text transform="matrix(1,0,0,1,0.695,32.359)" style="font-family:&quot;Arimo&quot;;font-weight:400;font-size:16px;font-style:normal;fill:#000000;stroke:none;">the Knowledge </text><text transform="matrix(1,0,0,1,35.391,50.234)" style="font-family:&quot;Arimo&quot;;font-weight:400;font-size:16px;font-style:normal;fill:#000000;stroke:none;">Base</text></g><g transform="matrix(1,0,0,1,179.728,260)"><text transform="matrix(1,0,0,1,1.937,14.484)" style="font-family:&quot;Arimo&quot;;font-weight:400;font-size:16px;font-style:normal;fill:#000000;stroke:none;">Application in </text><text transform="matrix(1,0,0,1,21.503,32.359)" style="font-family:&quot;Arimo&quot;;font-weight:400;font-size:16px;font-style:normal;fill:#000000;stroke:none;">the field</text></g><g transform="matrix(1,0,0,1,186.75,90)"><text transform="matrix(1,0,0,1,7.039,14.484)" style="font-family:&quot;Arimo&quot;;font-weight:400;font-size:16px;font-style:normal;fill:#000000;stroke:none;">Business </text><text transform="matrix(1,0,0,1,17.703,32.359)" style="font-family:&quot;Arimo&quot;;font-weight:400;font-size:16px;font-style:normal;fill:#000000;stroke:none;">needs</text></g><g transform="matrix(1,0,0,1,487.335,90)"><text transform="matrix(1,0,0,1,0,14.484)" style="font-family:&quot;Arimo&quot;;font-weight:400;font-size:16px;font-style:normal;fill:#000000;stroke:none;">Applicable </text><text transform="matrix(1,0,0,1,0,32.359)" style="font-family:&quot;Arimo&quot;;font-weight:400;font-size:16px;font-style:normal;fill:#000000;stroke:none;">knowledge</text></g><g transform="matrix(1,0,0,1,389,153.313)"><text transform="matrix(1,0,0,1,0,14.484)" style="font-family:&quot;Arimo&quot;;font-weight:400;font-size:16px;font-style:normal;fill:#000000;stroke:none;">Refine</text></g><rect x="3" y="46.5" width="170" height="270" transform="matrix(1,0,0,1,0,0)" fill="none" vector-effect="non-scaling-stroke" stroke-width="2" stroke="rgb(0,0,0)" stroke-linejoin="miter" stroke-linecap="square" stroke-miterlimit="3"/><rect x="297" y="46.5" width="170" height="270" transform="matrix(1,0,0,1,0,0)" fill="none" vector-effect="non-scaling-stroke" stroke-width="2" stroke="rgb(0,0,0)" stroke-linejoin="miter" stroke-linecap="square" stroke-miterlimit="3"/><rect x="590.75" y="46.5" width="166.25" height="270" transform="matrix(1,0,0,1,0,0)" fill="none" vector-effect="non-scaling-stroke" stroke-width="2" stroke="rgb(0,0,0)" stroke-linejoin="miter" stroke-linecap="square" stroke-miterlimit="3"/><line x1="441.5" y1="133.437" x2="441.5" y2="196.5" vector-effect="non-scaling-stroke" stroke-width="2" stroke="rgb(0,0,0)" stroke-linejoin="miter" stroke-linecap="square" stroke-miterlimit="3"/><path d=" M 448.571 145.58 L 441.5 131.437 L 434.429 145.58" fill="none" stroke="rgb(0,0,0)" stroke-width="2"/><line x1="316" y1="192.5" x2="316" y2="129.438" vector-effect="non-scaling-stroke" stroke-width="2" stroke="rgb(0,0,0)" stroke-linejoin="miter" stroke-linecap="square" stroke-miterlimit="3"/><path d=" M 308.929 180.358 L 316 194.5 L 323.071 180.358" fill="none" stroke="rgb(0,0,0)" stroke-width="2"/><g id="Cycle"><g id="Group"><path d=" M 170.782 192.528 C 170.782 159.6 199.584 132.868 235.061 132.868 C 270.538 132.868 299.341 159.6 299.341 192.528 C 299.341 225.455 270.538 252.188 235.061 252.188 C 199.584 252.188 170.782 225.455 170.782 192.528 Z " fill="rgb(178,178,178)"/><g id="Cycle"><path d=" M 201.045 243.147 C 210.812 248.548 222.242 251.662 234.455 251.662 C 257.804 251.662 278.288 240.283 289.724 223.229" fill="none" vector-effect="non-scaling-stroke" stroke-width="3.21" stroke="rgb(0,0,0)" stroke-linejoin="miter" stroke-linecap="butt" stroke-miterlimit="3"/><path d=" M 213.036 239.516 L 193.02 238.735 L 204.405 255.217 L 202.44 243.914 L 213.036 239.516 Z " fill="rgb(0,0,0)" stroke="none"/><path d=" M 289.724 223.229 C 295.82 214.121 299.341 203.399 299.341 191.925 C 299.341 172.866 289.626 155.879 274.489 144.96" fill="none" vector-effect="non-scaling-stroke" stroke-width="3.21" stroke="rgb(0,0,0)" stroke-linejoin="miter" stroke-linecap="butt" stroke-miterlimit="3"/><path d=" M 287.117 210.975 L 284.651 230.854 L 302.034 220.899 L 290.606 221.904 L 287.117 210.975 Z " fill="rgb(0,0,0)" stroke="none"/><path d=" M 175.504 166.971 C 171.691 174.563 169.569 183.017 169.569 191.925 C 169.569 213.65 182.194 232.683 201.045 243.147" fill="none" vector-effect="non-scaling-stroke" stroke-width="3.21" stroke="rgb(0,0,0)" stroke-linejoin="miter" stroke-linecap="butt" stroke-miterlimit="3"/><path d=" M 179.605 178.809 L 179.596 158.777 L 163.576 170.803 L 174.793 168.395 L 179.605 178.809 Z " fill="rgb(0,0,0)" stroke="none"/><path d=" M 274.489 144.96 C 263.476 136.953 249.565 132.187 234.455 132.187 C 208.318 132.187 185.77 146.445 175.504 166.971" fill="none" vector-effect="non-scaling-stroke" stroke-width="3.21" stroke="rgb(0,0,0)" stroke-linejoin="miter" stroke-linecap="butt" stroke-miterlimit="3"/><path d=" M 262.144 147.094 L 281.913 150.322 L 272.634 132.57 L 273.198 144.028 L 262.144 147.094 Z " fill="rgb(0,0,0)" stroke="none"/></g></g></g><g id="Cycle"><g id="Group"><path d=" M 592.56 192.528 C 592.56 159.6 563.757 132.868 528.28 132.868 C 492.803 132.868 464 159.6 464 192.528 C 464 225.455 492.803 252.188 528.28 252.188 C 563.757 252.188 592.56 225.455 592.56 192.528 Z " fill="rgb(178,178,178)"/><g id="Cycle"><path d=" M 562.296 243.147 C 552.529 248.548 541.099 251.662 528.886 251.662 C 505.538 251.662 485.053 240.283 473.617 223.229" fill="none" vector-effect="non-scaling-stroke" stroke-width="3.21" stroke="rgb(0,0,0)" stroke-linejoin="miter" stroke-linecap="butt" stroke-miterlimit="3"/><path d=" M 558.936 255.217 L 570.322 238.735 L 550.306 239.516 L 560.901 243.914 L 558.936 255.217 Z " fill="rgb(0,0,0)" stroke="none"/><path d=" M 473.617 223.229 C 467.521 214.121 464 203.399 464 191.925 C 464 172.866 473.716 155.879 488.853 144.96" fill="none" vector-effect="non-scaling-stroke" stroke-width="3.21" stroke="rgb(0,0,0)" stroke-linejoin="miter" stroke-linecap="butt" stroke-miterlimit="3"/><path d=" M 461.308 220.899 L 478.69 230.854 L 476.224 210.975 L 472.736 221.904 L 461.308 220.899 Z " fill="rgb(0,0,0)" stroke="none"/><path d=" M 587.837 166.971 C 591.65 174.563 593.772 183.017 593.772 191.925 C 593.772 213.65 581.147 232.683 562.296 243.147" fill="none" vector-effect="non-scaling-stroke" stroke-width="3.21" stroke="rgb(0,0,0)" stroke-linejoin="miter" stroke-linecap="butt" stroke-miterlimit="3"/><path d=" M 599.765 170.803 L 583.745 158.777 L 583.736 178.809 L 588.548 168.395 L 599.765 170.803 Z " fill="rgb(0,0,0)" stroke="none"/><path d=" M 488.853 144.96 C 499.866 136.953 513.776 132.187 528.886 132.187 C 555.023 132.187 577.571 146.445 587.837 166.971" fill="none" vector-effect="non-scaling-stroke" stroke-width="3.21" stroke="rgb(0,0,0)" stroke-linejoin="miter" stroke-linecap="butt" stroke-miterlimit="3"/><path d=" M 490.708 132.57 L 481.428 150.322 L 501.198 147.094 L 490.143 144.028 L 490.708 132.57 Z " fill="rgb(0,0,0)" stroke="none"/></g></g></g><path d=" M 356.269 -64.149 C 344.912 -58.298 331.855 -55 317.981 -55 C 273.69 -55 237.731 -88.606 237.731 -130 C 237.731 -171.394 273.69 -205 317.981 -205 C 329.19 -205 339.866 -202.847 349.531 -198.909" fill="none" vector-effect="non-scaling-stroke" stroke-width="4" stroke="rgb(0,0,0)" stroke-linejoin="miter" stroke-linecap="butt" stroke-miterlimit="3"/><path d=" M 352.197 -50.828 L 365.439 -68.847 L 343.079 -68.629 Z " fill="rgb(0,0,0)" stroke="none"/><path d=" M 707.038 -94.149 C 695.681 -88.298 682.624 -85 668.75 -85 C 626.374 -85 591.626 -115.762 588.702 -154.675" fill="none" vector-effect="non-scaling-stroke" stroke-width="4" stroke="rgb(0,0,0)" stroke-linejoin="miter" stroke-linecap="butt" stroke-miterlimit="3"/><path d=" M 702.966 -80.828 L 716.208 -98.847 L 693.848 -98.629 Z " fill="rgb(0,0,0)" stroke="none"/><path d=" M 588.702 -154.675 C 588.567 -156.434 588.5 -158.21 588.5 -160 C 588.5 -201.394 624.459 -235 668.75 -235 C 679.959 -235 690.635 -232.847 700.3 -228.909" fill="none" vector-effect="non-scaling-stroke" stroke-width="4" stroke="rgb(0,0,0)" stroke-linejoin="miter" stroke-linecap="butt" stroke-miterlimit="3"/><path d=" M 577.996 -163.587 L 589.482 -144.402 L 597.938 -165.102 Z " fill="rgb(0,0,0)" stroke="none"/><g transform="matrix(1,0,0,1,174.864,171)"><text transform="matrix(1,0,0,1,10.135,18.105)" style="font-family:&quot;Arimo&quot;;font-weight:400;font-size:20px;font-style:normal;fill:#000000;stroke:none;">Relevance </text><text transform="matrix(1,0,0,1,32.381,40.449)" style="font-family:&quot;Arimo&quot;;font-weight:400;font-size:20px;font-style:normal;fill:#000000;stroke:none;">Cycle</text></g><g transform="matrix(1,0,0,1,489.818,171)"><text transform="matrix(1,0,0,1,14.172,18.105)" style="font-family:&quot;Arimo&quot;;font-weight:400;font-size:20px;font-style:normal;fill:#000000;stroke:none;">Rigor </text><text transform="matrix(1,0,0,1,13.063,40.449)" style="font-family:&quot;Arimo&quot;;font-weight:400;font-size:20px;font-style:normal;fill:#000000;stroke:none;">Cycle</text></g></g></svg>