<?xml version="1.0" standalone="no"?><!-- Generator: Gravit.io --><svg xmlns="http://www.w3.org/2000/svg" xmlns:xlink="http://www.w3.org/1999/xlink" style="isolation:isolate" viewBox="0 0 800 370" width="800" height="370"><defs><clipPath id="_clipPath_IrDOwE5X60oPXgBAAUG3vL2dMZ1efY1a"><rect width="800" height="370"/></clipPath></defs><g clip-path="url(#_clipPath_IrDOwE5X60oPXgBAAUG3vL2dMZ1efY1a)"><g transform="matrix(1,0,0,1,19,11.5)"><text transform="matrix(1,0,0,1,0,18.105)" style="font-family:&quot;Arimo&quot;;font-weight:700;font-size:20px;font-style:normal;fill:#000000;stroke:none;">Environment</text></g><g transform="matrix(1,0,0,1,322.5,11.5)"><text transform="matrix(1,0,0,1,0,18.105)" style="font-family:&quot;Arimo&quot;;font-weight:700;font-size:20px;font-style:normal;fill:#000000;stroke:none;">IS Research</text></g><g id="Group"><rect x="472.5" y="1.5" width="120" height="40" transform="matrix(1,0,0,1,0,0)" fill="rgb(235,235,235)" vector-effect="non-scaling-stroke" stroke-width="1" stroke="rgb(235,235,235)" stroke-linejoin="miter" stroke-linecap="square" stroke-miterlimit="3"/><g transform="matrix(1,0,0,1,472.5,10.328)"><text transform="matrix(1,0,0,1,33.142,18.105)" style="font-family:&quot;Arimo&quot;;font-weight:700;font-size:20px;font-style:normal;fill:#000000;stroke:none;">Rigor</text></g></g><g id="Group"><rect x="175" y="1.5" width="120" height="40" transform="matrix(1,0,0,1,0,0)" fill="rgb(235,235,235)" vector-effect="non-scaling-stroke" stroke-width="1" stroke="rgb(235,235,235)" stroke-linejoin="miter" stroke-linecap="square" stroke-miterlimit="3"/><g transform="matrix(1,0,0,1,173.91,10.328)"><text transform="matrix(1,0,0,1,10.067,18.105)" style="font-family:&quot;Arimo&quot;;font-weight:700;font-size:20px;font-style:normal;fill:#000000;stroke:none;">Relevance</text></g></g><g transform="matrix(1,0,0,1,600,11.5)"><text transform="matrix(1,0,0,1,0,18.105)" style="font-family:&quot;Arimo&quot;;font-weight:700;font-size:20px;font-style:normal;fill:#000000;stroke:none;">Knowlegde Base</text></g><g id="Group"><g transform="matrix(1,0,0,1,13,56.5)"><text transform="matrix(1,0,0,1,0,18.105)" style="font-family:&quot;Arimo&quot;;font-weight:700;font-size:20px;font-style:normal;fill:#000000;stroke:none;">People</text></g><g transform="matrix(1,0,0,1,17,81.5)"><text transform="matrix(1,0,0,1,0,14.484)" style="font-family:&quot;Arimo&quot;;font-weight:400;font-size:16px;font-style:normal;fill:#000000;stroke:none;">Roles, Capabilities, </text><text transform="matrix(1,0,0,1,0,32.359)" style="font-family:&quot;Arimo&quot;;font-weight:400;font-size:16px;font-style:normal;fill:#000000;stroke:none;">Charactertistics</text></g></g><g id="Group"><g transform="matrix(1,0,0,1,13,126.5)"><text transform="matrix(1,0,0,1,0,18.105)" style="font-family:&quot;Arimo&quot;;font-weight:700;font-size:20px;font-style:normal;fill:#000000;stroke:none;">Organizations</text></g><g transform="matrix(1,0,0,1,17,151.5)"><text transform="matrix(1,0,0,1,0,14.484)" style="font-family:&quot;Arimo&quot;;font-weight:400;font-size:16px;font-style:normal;fill:#000000;stroke:none;">Strategies, Structure, </text><text transform="matrix(1,0,0,1,0,32.359)" style="font-family:&quot;Arimo&quot;;font-weight:400;font-size:16px;font-style:normal;fill:#000000;stroke:none;">Processes</text></g></g><g id="Group"><g transform="matrix(1,0,0,1,13,206.5)"><text transform="matrix(1,0,0,1,0,18.105)" style="font-family:&quot;Arimo&quot;;font-weight:700;font-size:20px;font-style:normal;fill:#000000;stroke:none;">Technology</text></g><g transform="matrix(1,0,0,1,17,231.5)"><text transform="matrix(1,0,0,1,0,14.484)" style="font-family:&quot;Arimo&quot;;font-weight:400;font-size:16px;font-style:normal;fill:#000000;stroke:none;">Infrastructure, </text><text transform="matrix(1,0,0,1,0,32.359)" style="font-family:&quot;Arimo&quot;;font-weight:400;font-size:16px;font-style:normal;fill:#000000;stroke:none;">Applications, </text><text transform="matrix(1,0,0,1,0,50.234)" style="font-family:&quot;Arimo&quot;;font-weight:400;font-size:16px;font-style:normal;fill:#000000;stroke:none;">Communications </text><text transform="matrix(1,0,0,1,0,68.109)" style="font-family:&quot;Arimo&quot;;font-weight:400;font-size:16px;font-style:normal;fill:#000000;stroke:none;">Architecture</text></g></g><g id="Group"><g transform="matrix(1,0,0,1,306,56.5)"><text transform="matrix(1,0,0,1,0,18.105)" style="font-family:&quot;Arimo&quot;;font-weight:700;font-size:20px;font-style:normal;fill:#000000;stroke:none;">Develop/Build</text></g><g transform="matrix(1,0,0,1,310,81.5)"><text transform="matrix(1,0,0,1,0,14.484)" style="font-family:&quot;Arimo&quot;;font-weight:400;font-size:16px;font-style:normal;fill:#000000;stroke:none;">Theories, </text><text transform="matrix(1,0,0,1,0,32.359)" style="font-family:&quot;Arimo&quot;;font-weight:400;font-size:16px;font-style:normal;fill:#000000;stroke:none;">Artifacts</text></g></g><g id="Group"><g transform="matrix(1,0,0,1,306,210.5)"><text transform="matrix(1,0,0,1,0,18.105)" style="font-family:&quot;Arimo&quot;;font-weight:700;font-size:20px;font-style:normal;fill:#000000;stroke:none;">Justify/Evaluate</text></g><g transform="matrix(1,0,0,1,310,232.844)"><text transform="matrix(1,0,0,1,0,14.484)" style="font-family:&quot;Arimo&quot;;font-weight:400;font-size:16px;font-style:normal;fill:#000000;stroke:none;">Analytical, </text><text transform="matrix(1,0,0,1,0,32.359)" style="font-family:&quot;Arimo&quot;;font-weight:400;font-size:16px;font-style:normal;fill:#000000;stroke:none;">Case study, </text><text transform="matrix(1,0,0,1,0,50.234)" style="font-family:&quot;Arimo&quot;;font-weight:400;font-size:16px;font-style:normal;fill:#000000;stroke:none;">Experimental, </text><text transform="matrix(1,0,0,1,0,68.109)" style="font-family:&quot;Arimo&quot;;font-weight:400;font-size:16px;font-style:normal;fill:#000000;stroke:none;">Simulation</text></g></g><g id="Group"><g transform="matrix(1,0,0,1,600,56.5)"><text transform="matrix(1,0,0,1,0,18.105)" style="font-family:&quot;Arimo&quot;;font-weight:700;font-size:20px;font-style:normal;fill:#000000;stroke:none;">Methodologies</text></g><g transform="matrix(1,0,0,1,604,81.813)"><text transform="matrix(1,0,0,1,0,14.484)" style="font-family:&quot;Arimo&quot;;font-weight:400;font-size:16px;font-style:normal;fill:#000000;stroke:none;">Theories, </text><text transform="matrix(1,0,0,1,0,32.359)" style="font-family:&quot;Arimo&quot;;font-weight:400;font-size:16px;font-style:normal;fill:#000000;stroke:none;">Frameworks, </text><text transform="matrix(1,0,0,1,0,50.234)" style="font-family:&quot;Arimo&quot;;font-weight:400;font-size:16px;font-style:normal;fill:#000000;stroke:none;">Constructs, </text><text transform="matrix(1,0,0,1,0,68.109)" style="font-family:&quot;Arimo&quot;;font-weight:400;font-size:16px;font-style:normal;fill:#000000;stroke:none;">Models, Methods, </text><text transform="matrix(1,0,0,1,0,85.984)" style="font-family:&quot;Arimo&quot;;font-weight:400;font-size:16px;font-style:normal;fill:#000000;stroke:none;">Instantiations</text></g></g><g id="Group"><g transform="matrix(1,0,0,1,600,186.5)"><text transform="matrix(1,0,0,1,0,18.105)" style="font-family:&quot;Arimo&quot;;font-weight:700;font-size:20px;font-style:normal;fill:#000000;stroke:none;">Foundations</text></g><g transform="matrix(1,0,0,1,604,211.5)"><text transform="matrix(1,0,0,1,0,14.484)" style="font-family:&quot;Arimo&quot;;font-weight:400;font-size:16px;font-style:normal;fill:#000000;stroke:none;">Data analysis </text><text transform="matrix(1,0,0,1,0,32.359)" style="font-family:&quot;Arimo&quot;;font-weight:400;font-size:16px;font-style:normal;fill:#000000;stroke:none;">techniques, </text><text transform="matrix(1,0,0,1,0,50.234)" style="font-family:&quot;Arimo&quot;;font-weight:400;font-size:16px;font-style:normal;fill:#000000;stroke:none;">Formalisms, </text><text transform="matrix(1,0,0,1,0,68.109)" style="font-family:&quot;Arimo&quot;;font-weight:400;font-size:16px;font-style:normal;fill:#000000;stroke:none;">Measures, </text><text transform="matrix(1,0,0,1,0,85.984)" style="font-family:&quot;Arimo&quot;;font-weight:400;font-size:16px;font-style:normal;fill:#000000;stroke:none;">Validation criteria</text></g></g><g transform="matrix(1,0,0,1,319.5,153.313)"><text transform="matrix(1,0,0,1,0,14.484)" style="font-family:&quot;Arimo&quot;;font-weight:400;font-size:16px;font-style:normal;fill:#000000;stroke:none;">Assess</text></g><g transform="matrix(1,0,0,1,463,319.181)"><text transform="matrix(1,0,0,1,8.852,14.484)" style="font-family:&quot;Arimo&quot;;font-weight:400;font-size:16px;font-style:normal;fill:#000000;stroke:none;">Additions to the </text><text transform="matrix(1,0,0,1,3.957,32.359)" style="font-family:&quot;Arimo&quot;;font-weight:400;font-size:16px;font-style:normal;fill:#000000;stroke:none;">Knowledge Base</text></g><g transform="matrix(1,0,0,1,139.5,319.181)"><text transform="matrix(1,0,0,1,33.57,14.484)" style="font-family:&quot;Arimo&quot;;font-weight:400;font-size:16px;font-style:normal;fill:#000000;stroke:none;">Application in the </text><text transform="matrix(1,0,0,1,7.781,32.359)" style="font-family:&quot;Arimo&quot;;font-weight:400;font-size:16px;font-style:normal;fill:#000000;stroke:none;">appropriate environment</text></g><g transform="matrix(1,0,0,1,183.5,97.688)"><text transform="matrix(1,0,0,1,7.039,14.484)" style="font-family:&quot;Arimo&quot;;font-weight:400;font-size:16px;font-style:normal;fill:#000000;stroke:none;">Business </text><text transform="matrix(1,0,0,1,17.703,32.359)" style="font-family:&quot;Arimo&quot;;font-weight:400;font-size:16px;font-style:normal;fill:#000000;stroke:none;">needs</text></g><g transform="matrix(1,0,0,1,493,97.688)"><text transform="matrix(1,0,0,1,0,14.484)" style="font-family:&quot;Arimo&quot;;font-weight:400;font-size:16px;font-style:normal;fill:#000000;stroke:none;">Applicable </text><text transform="matrix(1,0,0,1,0,32.359)" style="font-family:&quot;Arimo&quot;;font-weight:400;font-size:16px;font-style:normal;fill:#000000;stroke:none;">knowledge</text></g><g transform="matrix(1,0,0,1,389,153.313)"><text transform="matrix(1,0,0,1,0,14.484)" style="font-family:&quot;Arimo&quot;;font-weight:400;font-size:16px;font-style:normal;fill:#000000;stroke:none;">Refine</text></g><rect x="3" y="46.5" width="170" height="270" transform="matrix(1,0,0,1,0,0)" fill="none" vector-effect="non-scaling-stroke" stroke-width="2" stroke="rgb(0,0,0)" stroke-linejoin="miter" stroke-linecap="square" stroke-miterlimit="3"/><rect x="297" y="46.5" width="170" height="270" transform="matrix(1,0,0,1,0,0)" fill="none" vector-effect="non-scaling-stroke" stroke-width="2" stroke="rgb(0,0,0)" stroke-linejoin="miter" stroke-linecap="square" stroke-miterlimit="3"/><rect x="596" y="46.5" width="170" height="270" transform="matrix(1,0,0,1,0,0)" fill="none" vector-effect="non-scaling-stroke" stroke-width="2" stroke="rgb(0,0,0)" stroke-linejoin="miter" stroke-linecap="square" stroke-miterlimit="3"/><path d=" M 247 171.188 L 181 171.188 L 181 196.5 L 247 196.5 L 247 209.825 L 269.5 196.834 L 292 183.844 L 269.5 170.853 L 247 157.863 L 247 171.188 Z " fill="rgb(223,122,21)"/><radialGradient id="_rgradient_3" fx="50%" fy="50%" cx="50%" cy="50%" r="50%"><stop offset="0%" stop-opacity="1" style="stop-color:rgb(232,232,232)"/><stop offset="100%" stop-opacity="1" style="stop-color:rgb(0,0,0)"/></radialGradient><path d=" M 470.255 307.183 L 583.844 307.183 L 583.844 313.859 L 470.255 313.859 L 470.255 307.183 Z " fill="url(#_rgradient_3)"/><path d=" M 517.5 195.512 L 581.5 195.512 L 581.5 170.2 L 517.5 170.2 L 517.5 156.875 L 495 169.865 L 472.5 182.856 L 495 195.846 L 517.5 208.837 L 517.5 195.512 Z " fill="rgb(223,122,21)"/><polygon points="596,310.521,581,319.181,581,301.861" fill="rgb(0,0,0)"/><radialGradient id="_rgradient_4" fx="50%" fy="50%" cx="50%" cy="50%" r="50%"><stop offset="0%" stop-opacity="1" style="stop-color:rgb(232,232,232)"/><stop offset="100%" stop-opacity="1" style="stop-color:rgb(0,0,0)"/></radialGradient><path d=" M 470.255 307.183 L 583.844 307.183 L 583.844 313.859 L 470.255 313.859 L 470.255 307.183 Z " fill="url(#_rgradient_4)"/><polygon points="596,310.521,581,319.181,581,301.861" fill="rgb(0,0,0)"/><radialGradient id="_rgradient_5" fx="50%" fy="50%" cx="50%" cy="50%" r="50%"><stop offset="0%" stop-opacity="1" style="stop-color:rgb(232,232,232)"/><stop offset="100%" stop-opacity="1" style="stop-color:rgb(0,0,0)"/></radialGradient><path d=" M 294 313.859 L 189 313.859 L 189 307.183 L 294 307.183 L 294 313.859 Z " fill="url(#_rgradient_5)"/><polygon points="173.91,310.521,188.91,301.861,188.91,319.181" fill="rgb(0,0,0)"/><line x1="441.5" y1="133.437" x2="441.5" y2="196.5" vector-effect="non-scaling-stroke" stroke-width="2" stroke="rgb(0,0,0)" stroke-linejoin="miter" stroke-linecap="square" stroke-miterlimit="3"/><path d=" M 448.571 145.58 L 441.5 131.437 L 434.429 145.58" fill="none" stroke="rgb(0,0,0)" stroke-width="2"/><line x1="316" y1="192.5" x2="316" y2="129.438" vector-effect="non-scaling-stroke" stroke-width="2" stroke="rgb(0,0,0)" stroke-linejoin="miter" stroke-linecap="square" stroke-miterlimit="3"/><path d=" M 308.929 180.358 L 316 194.5 L 323.071 180.358" fill="none" stroke="rgb(0,0,0)" stroke-width="2"/></g></svg>