<?xml version="1.0" standalone="no"?><!-- Generator: Gravit.io --><svg xmlns="http://www.w3.org/2000/svg" xmlns:xlink="http://www.w3.org/1999/xlink" style="isolation:isolate" viewBox="0 0 500 250" width="500" height="250"><defs><clipPath id="_clipPath_L1Z2gPGNSnSEBGMRItWiRBmskeJEuPV9"><rect width="500" height="250"/></clipPath></defs><g clip-path="url(#_clipPath_L1Z2gPGNSnSEBGMRItWiRBmskeJEuPV9)"><g transform="matrix(1,0,0,1,224.513,0)"><text transform="matrix(1,0,0,1,0,19.239)" style="font-family:&quot;Open Sans&quot;;font-weight:400;font-size:18px;font-style:normal;fill:#000000;stroke:none;">Research activities</text></g><g transform="matrix(0,-1,1,0,0,211.513)"><text transform="matrix(1,0,0,1,0,19.239)" style="font-family:&quot;Open Sans&quot;;font-weight:400;font-size:18px;font-style:normal;fill:#000000;stroke:none;">Research outputs</text></g><g transform="matrix(1,0,0,1,179.513,30)"><text transform="matrix(1,0,0,1,0,19.239)" style="font-family:&quot;Open Sans&quot;;font-weight:400;font-size:18px;font-style:normal;fill:#000000;stroke:none;">Build</text></g><g transform="matrix(1,0,0,1,37.513,67)"><text transform="matrix(1,0,0,1,0,19.239)" style="font-family:&quot;Open Sans&quot;;font-weight:400;font-size:18px;font-style:normal;fill:#000000;stroke:none;">Constructs</text></g><g transform="matrix(1,0,0,1,37.513,107)"><text transform="matrix(1,0,0,1,0,19.239)" style="font-family:&quot;Open Sans&quot;;font-weight:400;font-size:18px;font-style:normal;fill:#000000;stroke:none;">Models</text></g><g transform="matrix(1,0,0,1,37.513,147.744)"><text transform="matrix(1,0,0,1,0,19.239)" style="font-family:&quot;Open Sans&quot;;font-weight:400;font-size:18px;font-style:normal;fill:#000000;stroke:none;">Methods</text></g><g transform="matrix(1,0,0,1,37.513,187)"><text transform="matrix(1,0,0,1,0,19.239)" style="font-family:&quot;Open Sans&quot;;font-weight:400;font-size:18px;font-style:normal;fill:#000000;stroke:none;">Instantiations</text></g><g transform="matrix(1,0,0,1,244.513,30)"><text transform="matrix(1,0,0,1,0,19.239)" style="font-family:&quot;Open Sans&quot;;font-weight:400;font-size:18px;font-style:normal;fill:#000000;stroke:none;">Evaluate</text></g><g transform="matrix(1,0,0,1,331.013,30)"><text transform="matrix(1,0,0,1,0,19.239)" style="font-family:&quot;Open Sans&quot;;font-weight:400;font-size:18px;font-style:normal;fill:#000000;stroke:none;">Develop</text></g><g transform="matrix(1,0,0,1,414.888,30)"><text transform="matrix(1,0,0,1,1.406,19.239)" style="font-family:&quot;Open Sans&quot;;font-weight:400;font-size:18px;font-style:normal;fill:#000000;stroke:none;">Justify</text></g><line x1="34.513" y1="60" x2="474.513" y2="60" vector-effect="non-scaling-stroke" stroke-width="0.903" stroke="rgb(0,0,0)" stroke-linejoin="miter" stroke-linecap="square" stroke-miterlimit="3"/><line x1="34.513" y1="100" x2="474.513" y2="100" vector-effect="non-scaling-stroke" stroke-width="0.903" stroke="rgb(0,0,0)" stroke-linejoin="miter" stroke-linecap="square" stroke-miterlimit="3"/><line x1="34.513" y1="140" x2="474.513" y2="140" vector-effect="non-scaling-stroke" stroke-width="0.903" stroke="rgb(0,0,0)" stroke-linejoin="miter" stroke-linecap="square" stroke-miterlimit="3"/><line x1="34.513" y1="180" x2="474.513" y2="180" vector-effect="non-scaling-stroke" stroke-width="0.903" stroke="rgb(0,0,0)" stroke-linejoin="miter" stroke-linecap="square" stroke-miterlimit="3"/><line x1="34.513" y1="220" x2="474.513" y2="220" vector-effect="non-scaling-stroke" stroke-width="0.903" stroke="rgb(0,0,0)" stroke-linejoin="miter" stroke-linecap="square" stroke-miterlimit="3"/><line x1="164.513" y1="30" x2="164.513" y2="220" vector-effect="non-scaling-stroke" stroke-width="1" stroke="rgb(0,0,0)" stroke-linejoin="miter" stroke-linecap="square" stroke-miterlimit="3"/><line x1="237.013" y1="30" x2="237.013" y2="220" vector-effect="non-scaling-stroke" stroke-width="1" stroke="rgb(0,0,0)" stroke-linejoin="miter" stroke-linecap="square" stroke-miterlimit="3"/><line x1="324.513" y1="30" x2="324.513" y2="220" vector-effect="non-scaling-stroke" stroke-width="1" stroke="rgb(0,0,0)" stroke-linejoin="miter" stroke-linecap="square" stroke-miterlimit="3"/><line x1="408.263" y1="30" x2="408.263" y2="220" vector-effect="non-scaling-stroke" stroke-width="1" stroke="rgb(0,0,0)" stroke-linejoin="miter" stroke-linecap="square" stroke-miterlimit="3"/><line x1="474.513" y1="30" x2="474.513" y2="220" vector-effect="non-scaling-stroke" stroke-width="1" stroke="rgb(0,0,0)" stroke-linejoin="miter" stroke-linecap="square" stroke-miterlimit="3"/><g id="Group"><path d=" M 190.013 201.406 C 190.013 194.456 195.656 188.813 202.606 188.813 C 209.557 188.813 215.2 194.456 215.2 201.406 C 215.2 208.357 209.557 214 202.606 214 C 195.656 214 190.013 208.357 190.013 201.406 Z " fill="rgb(111,215,114)"/><path d=" M 209.622 195.166 L 200.627 204.172 L 196.915 200.468 L 195.042 202.345 L 200.631 207.921 L 211.498 197.041 L 209.622 195.166 Z " fill="rgb(45,123,47)"/></g><path d=" M 282.513 191.5 C 276.45 191.5 271.513 196.438 271.513 202.5 C 271.513 208.563 276.451 213.5 282.513 213.5 C 288.576 213.5 293.513 208.562 293.513 202.5 C 293.513 196.437 288.575 191.5 282.513 191.5 Z  M 282.513 193.5 C 287.493 193.5 291.513 197.52 291.513 202.5 C 291.513 207.48 287.493 211.5 282.513 211.5 C 277.533 211.5 273.513 207.48 273.513 202.5 C 273.513 197.52 277.533 193.5 282.513 193.5 Z  M 287.919 198.688 L 281.513 205.061 L 278.232 201.781 L 276.794 203.218 L 280.794 207.218 L 281.513 207.905 L 282.232 207.218 L 289.326 200.093 L 287.919 198.688 Z " fill="rgb(0,0,0)"/></g></svg>