<?xml version="1.0" standalone="no"?><!-- Generator: Gravit.io --><svg xmlns="http://www.w3.org/2000/svg" xmlns:xlink="http://www.w3.org/1999/xlink" style="isolation:isolate" viewBox="0 0 674.912 357.5" width="674.912" height="357.5"><defs><clipPath id="_clipPath_AApPPB9yX9oOgVNLb5imntG5hrVCfoot"><rect width="674.91212" height="357.5"/></clipPath></defs><g clip-path="url(#_clipPath_AApPPB9yX9oOgVNLb5imntG5hrVCfoot)"><path d=" M 307.41212 55.5 C 307.41212 25.14467 332.05679 0.5 362.41212 0.5 C 392.76744 0.5 417.41212 25.14467 417.41212 55.5 C 417.41212 85.85533 392.76744 110.5 362.41212 110.5 C 332.05679 110.5 307.41212 85.85533 307.41212 55.5 Z " fill="none" vector-effect="non-scaling-stroke" stroke-width="1" stroke="rgb(0,0,0)" stroke-linejoin="miter" stroke-linecap="square" stroke-miterlimit="3"/><rect x="127.912" y="155.5" width="160" height="190" transform="matrix(1,0,0,1,0,0)" fill="rgb(235,235,235)" vector-effect="non-scaling-stroke" stroke-width="1" stroke="rgb(0,0,0)" stroke-linejoin="miter" stroke-linecap="square" stroke-miterlimit="3"/><g transform="matrix(1,0,0,1,135.69347,162.3673)"><text transform="matrix(1,0,0,1,0,21.37695)" style="font-family:&quot;Open Sans&quot;;font-weight:400;font-size:20px;font-style:normal;fill:#000000;stroke:none;">Elicitation</text></g><g transform="matrix(1,0,0,1,162.41212,215.5)"><text transform="matrix(1,0,0,1,1.5,22.87695)" style="font-family:&quot;Open Sans&quot;;font-weight:400;font-size:20px;font-style:normal;fill:#000000;stroke:none;">Session 1</text></g><g transform="matrix(1,0,0,1,198.41212,255.5)"><text transform="matrix(1,0,0,1,0,21.37695)" style="font-family:&quot;Open Sans&quot;;font-weight:400;font-size:20px;font-style:normal;fill:#000000;stroke:none;">...</text></g><g transform="matrix(1,0,0,1,162.41212,295.5)"><text transform="matrix(1,0,0,1,1.5,22.87695)" style="font-family:&quot;Open Sans&quot;;font-weight:400;font-size:20px;font-style:normal;fill:#000000;stroke:none;">Session n</text></g><path d=" M 0.5 216.47442 C 0.5 202.67654 17.56831 191.47442 38.59169 191.47442 C 59.61506 191.47442 76.68337 202.67654 76.68337 216.47442 C 76.68337 230.27229 59.61506 241.47442 38.59169 241.47442 C 17.56831 241.47442 0.5 230.27229 0.5 216.47442 Z " fill="rgb(141,141,141)" vector-effect="non-scaling-stroke" stroke-width="1" stroke="rgb(0,0,0)" stroke-linejoin="miter" stroke-linecap="square" stroke-miterlimit="3"/><path d=" M 0.5 244.11816 C 0.5 230.32029 10.05479 219.11816 21.82361 219.11816 C 33.59243 219.11816 43.14722 230.32029 43.14722 244.11816 C 43.14722 257.91604 33.59243 269.11816 21.82361 269.11816 C 10.05479 269.11816 0.5 257.91604 0.5 244.11816 Z " fill="rgb(141,141,141)" vector-effect="non-scaling-stroke" stroke-width="1" stroke="rgb(0,0,0)" stroke-linejoin="miter" stroke-linecap="square" stroke-miterlimit="3"/><path d=" M 24.87715 290.90725 C 15.05139 276.81763 21.07427 255.61529 38.31853 243.58957 C 55.56278 231.56385 77.54019 233.23947 87.36594 247.32908 C 97.1917 261.4187 91.16882 282.62104 73.92456 294.64676 C 56.68031 306.67248 34.7029 304.99686 24.87715 290.90725 Z " fill="rgb(141,141,141)" vector-effect="non-scaling-stroke" stroke-width="1" stroke="rgb(0,0,0)" stroke-linejoin="miter" stroke-linecap="square" stroke-miterlimit="3"/><path d=" M 38.33272 229.11816 C 38.33272 222.69181 43.55011 217.47442 49.97647 217.47442 C 56.40283 217.47442 61.62022 222.69181 61.62022 229.11816 C 61.62022 235.54452 56.40283 240.76191 49.97647 240.76191 C 43.55011 240.76191 38.33272 235.54452 38.33272 229.11816 Z " fill="rgb(235,235,235)" vector-effect="non-scaling-stroke" stroke-width="1" stroke="rgb(0,0,0)" stroke-linejoin="miter" stroke-linecap="square" stroke-miterlimit="3"/><path d=" M 46.31701 269.11816 C 46.31701 262.69181 51.53439 257.47442 57.96075 257.47442 C 64.38711 257.47442 69.6045 262.69181 69.6045 269.11816 C 69.6045 275.54452 64.38711 280.76191 57.96075 280.76191 C 51.53439 280.76191 46.31701 275.54452 46.31701 269.11816 Z " fill="rgb(235,235,235)" vector-effect="non-scaling-stroke" stroke-width="1" stroke="rgb(0,0,0)" stroke-linejoin="miter" stroke-linecap="square" stroke-miterlimit="3"/><path d=" M 61.85093 258.21777 L 158.09699 306.04547 L 57.96076 280.7619 L 158.09699 306.04547" fill="none" vector-effect="non-scaling-stroke" stroke-width="1" stroke="rgb(0,0,0)" stroke-linejoin="miter" stroke-linecap="round" stroke-miterlimit="3"/><path d=" M 49.97648 217.47443 L 157.41212 229.94009 L 49.97648 240.7619 L 157.41212 230.2728" fill="none" vector-effect="non-scaling-stroke" stroke-width="1" stroke="rgb(0,0,0)" stroke-linejoin="round" stroke-linecap="round" stroke-miterlimit="3"/><g id="Group"><rect x="317.412" y="223.707" width="80" height="25.472" transform="matrix(1,0,0,1,0,0)" fill="rgb(235,235,235)" vector-effect="non-scaling-stroke" stroke-width="1" stroke="rgb(0,0,0)" stroke-linejoin="miter" stroke-linecap="square" stroke-miterlimit="3"/><g transform="matrix(1,0,0,1,318.41212,223.70726)"><text transform="matrix(1,0,0,1,0.33398,20.47291)" style="font-family:&quot;Open Sans&quot;;font-weight:400;font-size:20px;font-style:normal;fill:#000000;stroke:none;">Analysis</text></g></g><g id="Group"><rect x="428.412" y="221.943" width="120" height="27.236" transform="matrix(1,0,0,1,0,0)" fill="rgb(235,235,235)" vector-effect="non-scaling-stroke" stroke-width="1" stroke="rgb(0,0,0)" stroke-linejoin="miter" stroke-linecap="square" stroke-miterlimit="3"/><g transform="matrix(1,0,0,1,428.41212,221.94282)"><text transform="matrix(1,0,0,1,0.00586,21.37695)" style="font-family:&quot;Open Sans&quot;;font-weight:400;font-size:20px;font-style:normal;fill:#000000;stroke:none;">Specification</text></g></g><g id="Group"><rect x="578.412" y="221.342" width="95" height="27.236" transform="matrix(1,0,0,1,0,0)" fill="rgb(235,235,235)" vector-effect="non-scaling-stroke" stroke-width="1" stroke="rgb(0,0,0)" stroke-linejoin="miter" stroke-linecap="square" stroke-miterlimit="3"/><g transform="matrix(1,0,0,1,579.41212,221.34201)"><text transform="matrix(1,0,0,1,0.00098,21.37695)" style="font-family:&quot;Open Sans&quot;;font-weight:400;font-size:20px;font-style:normal;fill:#000000;stroke:none;">Validation</text></g></g><path d=" M 307.41212 95.5 C 307.41212 65.14467 332.05679 40.5 362.41212 40.5 C 392.76744 40.5 417.41212 65.14467 417.41212 95.5 C 417.41212 125.85533 392.76744 150.5 362.41212 150.5 C 332.05679 150.5 307.41212 125.85533 307.41212 95.5 Z " fill="rgb(141,141,141)" vector-effect="non-scaling-stroke" stroke-width="1" stroke="rgb(0,0,0)" stroke-linejoin="miter" stroke-linecap="square" stroke-miterlimit="3"/><g transform="matrix(1,0,0,1,322.41212,76.43457)"><text transform="matrix(1,0,0,1,0,14.96387)" style="font-family:&quot;Open Sans&quot;;font-weight:400;font-size:14px;font-style:normal;fill:#000000;stroke:none;">Understood </text><text transform="matrix(1,0,0,1,3.60693,34.0293)" style="font-family:&quot;Open Sans&quot;;font-weight:400;font-size:14px;font-style:normal;fill:#000000;stroke:none;">knowledge</text></g><path d=" M 307.41212 45.5 L 234.41212 45.5 L 207.41212 45.5 L 207.41212 45.5 L 207.53484 72.49972 L 207.91212 155.5" fill="none" vector-effect="non-scaling-stroke" stroke-width="1" stroke="rgb(0,0,0)" stroke-linejoin="round" stroke-linecap="square" stroke-miterlimit="3"/><path d=" M 307.41212 45.5 L 233.79135 45.5 L 207.41212 45.5 L 207.41212 45.5 L 207.53773 71.87893 L 207.91212 150.5" fill="none" vector-effect="non-scaling-stroke" stroke-width="0.97701" stroke="rgb(0,0,0)" stroke-linejoin="round" stroke-linecap="square" stroke-miterlimit="3"/><path d=" M 203.00614 146.11554 L 207.93765 155.86225 L 212.77612 146.06902 Z " fill="rgb(0,0,0)" stroke="none"/><path d=" M 626.41212 221.94282 L 626.41212 93.73874 L 626.41212 45.5 L 626.41212 45.5 L 578.17385 45.71385 L 427.41212 46.38221" fill="none" vector-effect="non-scaling-stroke" stroke-width="1" stroke="rgb(0,0,0)" stroke-linejoin="round" stroke-linecap="square" stroke-miterlimit="3"/><path d=" M 427.38995 41.38226 L 417.41222 46.42655 L 427.43428 51.38216 Z " fill="rgb(0,0,0)" stroke="none"/><path d=" M 467.41212 216.47442 L 467.41212 115.52162 L 467.41212 95.5 L 467.41212 95.5 L 447.39196 95.74219 L 417.41212 96.10487" fill="none" vector-effect="non-scaling-stroke" stroke-width="1" stroke="rgb(0,0,0)" stroke-linejoin="round" stroke-linecap="square" stroke-miterlimit="3"/><path d=" M 462.41212 211.97442 L 467.41212 221.97442 L 472.41212 211.97442 Z " fill="rgb(0,0,0)" stroke="none"/><line x1="287.41212" y1="235.56099" x2="317.41212" y2="235.56099" vector-effect="non-scaling-stroke" stroke-width="1" stroke="rgb(0,0,0)" stroke-linejoin="miter" stroke-linecap="square" stroke-miterlimit="3"/><line x1="397.41212" y1="235.56099" x2="427.41212" y2="235.56099" vector-effect="non-scaling-stroke" stroke-width="1" stroke="rgb(0,0,0)" stroke-linejoin="miter" stroke-linecap="square" stroke-miterlimit="3"/><line x1="548.41212" y1="236.44321" x2="578.41212" y2="236.44321" vector-effect="non-scaling-stroke" stroke-width="1" stroke="rgb(0,0,0)" stroke-linejoin="miter" stroke-linecap="square" stroke-miterlimit="3"/><path d=" M 362.41212 223.70726 C 362.25177 193.8416 362.26177 171.11517 362.41212 155.5" fill="none" vector-effect="non-scaling-stroke" stroke-width="1" stroke="rgb(0,0,0)" stroke-linejoin="miter" stroke-linecap="square" stroke-miterlimit="3"/><path d=" M 367.36917 160.04727 L 362.46434 150.00025 L 357.36962 159.95232 Z " fill="rgb(0,0,0)" stroke="none"/><line x1="507.41212" y1="45.5" x2="507.41212" y2="221.34201" vector-effect="non-scaling-stroke" stroke-width="1" stroke="rgb(0,0,0)" stroke-linejoin="miter" stroke-linecap="butt" stroke-miterlimit="3"/><line x1="488.41212" y1="250.5" x2="488.41212" y2="290.5" vector-effect="non-scaling-stroke" stroke-width="0.94281" stroke="rgb(0,0,0)" stroke-linejoin="miter" stroke-linecap="square" stroke-miterlimit="3"/><path d=" M 483.69807 286.2304 L 488.41212 295.65849 L 493.12616 286.2304 Z " fill="rgb(0,0,0)" stroke="none"/><path d=" M 473.41212 295.5 L 473.41212 297.5 L 467.41212 297.5 L 467.41212 355.5 L 473.41212 355.5 L 473.41212 357.5 L 523.41212 357.5 L 523.41212 310.086 L 508.82612 295.5 L 473.41212 295.5 Z  M 475.41212 297.5 L 507.41212 297.5 L 507.41212 311.5 L 521.41212 311.5 L 521.41212 355.5 L 475.41212 355.5 L 475.41212 297.5 Z  M 509.41212 298.914 L 519.99812 309.5 L 509.41212 309.5 L 509.41212 298.914 Z  M 469.41212 299.5 L 473.41212 299.5 L 473.41212 353.5 L 469.41212 353.5 L 469.41212 299.5 Z  M 480.41212 299.5 C 479.86212 299.5 479.41212 299.95 479.41212 300.5 C 479.41212 301.05 479.86212 301.5 480.41212 301.5 C 480.96212 301.5 481.41212 301.05 481.41212 300.5 C 481.41212 299.95 480.96212 299.5 480.41212 299.5 Z  M 480.41212 303.5 C 479.86212 303.5 479.41212 303.95 479.41212 304.5 C 479.41212 305.05 479.86212 305.5 480.41212 305.5 C 480.96212 305.5 481.41212 305.05 481.41212 304.5 C 481.41212 303.95 480.96212 303.5 480.41212 303.5 Z  M 480.41212 307.5 C 479.86212 307.5 479.41212 307.95 479.41212 308.5 C 479.41212 309.05 479.86212 309.5 480.41212 309.5 C 480.96212 309.5 481.41212 309.05 481.41212 308.5 C 481.41212 307.95 480.96212 307.5 480.41212 307.5 Z  M 480.41212 311.5 C 479.86212 311.5 479.41212 311.95 479.41212 312.5 C 479.41212 313.05 479.86212 313.5 480.41212 313.5 C 480.96212 313.5 481.41212 313.05 481.41212 312.5 C 481.41212 311.95 480.96212 311.5 480.41212 311.5 Z  M 480.41212 315.5 C 479.86212 315.5 479.41212 315.95 479.41212 316.5 C 479.41212 317.05 479.86212 317.5 480.41212 317.5 C 480.96212 317.5 481.41212 317.05 481.41212 316.5 C 481.41212 315.95 480.96212 315.5 480.41212 315.5 Z  M 480.41212 319.5 C 479.86212 319.5 479.41212 319.95 479.41212 320.5 C 479.41212 321.05 479.86212 321.5 480.41212 321.5 C 480.96212 321.5 481.41212 321.05 481.41212 320.5 C 481.41212 319.95 480.96212 319.5 480.41212 319.5 Z  M 486.41212 320.5 L 486.41212 322.5 L 513.41212 322.5 L 513.41212 320.5 L 486.41212 320.5 Z  M 480.41212 323.5 C 479.86212 323.5 479.41212 323.95 479.41212 324.5 C 479.41212 325.05 479.86212 325.5 480.41212 325.5 C 480.96212 325.5 481.41212 325.05 481.41212 324.5 C 481.41212 323.95 480.96212 323.5 480.41212 323.5 Z  M 486.41212 326.5 L 486.41212 328.5 L 509.41212 328.5 L 509.41212 326.5 L 486.41212 326.5 Z  M 480.41212 327.5 C 479.86212 327.5 479.41212 327.95 479.41212 328.5 C 479.41212 329.05 479.86212 329.5 480.41212 329.5 C 480.96212 329.5 481.41212 329.05 481.41212 328.5 C 481.41212 327.95 480.96212 327.5 480.41212 327.5 Z  M 480.41212 331.5 C 479.86212 331.5 479.41212 331.95 479.41212 332.5 C 479.41212 333.05 479.86212 333.5 480.41212 333.5 C 480.96212 333.5 481.41212 333.05 481.41212 332.5 C 481.41212 331.95 480.96212 331.5 480.41212 331.5 Z  M 486.41212 332.5 L 486.41212 334.5 L 513.41212 334.5 L 513.41212 332.5 L 486.41212 332.5 Z  M 480.41212 335.5 C 479.86212 335.5 479.41212 335.95 479.41212 336.5 C 479.41212 337.05 479.86212 337.5 480.41212 337.5 C 480.96212 337.5 481.41212 337.05 481.41212 336.5 C 481.41212 335.95 480.96212 335.5 480.41212 335.5 Z  M 486.41212 338.5 L 486.41212 340.5 L 509.41212 340.5 L 509.41212 338.5 L 486.41212 338.5 Z  M 480.41212 339.5 C 479.86212 339.5 479.41212 339.95 479.41212 340.5 C 479.41212 341.05 479.86212 341.5 480.41212 341.5 C 480.96212 341.5 481.41212 341.05 481.41212 340.5 C 481.41212 339.95 480.96212 339.5 480.41212 339.5 Z  M 480.41212 343.5 C 479.86212 343.5 479.41212 343.95 479.41212 344.5 C 479.41212 345.05 479.86212 345.5 480.41212 345.5 C 480.96212 345.5 481.41212 345.05 481.41212 344.5 C 481.41212 343.95 480.96212 343.5 480.41212 343.5 Z  M 480.41212 347.5 C 479.86212 347.5 479.41212 347.95 479.41212 348.5 C 479.41212 349.05 479.86212 349.5 480.41212 349.5 C 480.96212 349.5 481.41212 349.05 481.41212 348.5 C 481.41212 347.95 480.96212 347.5 480.41212 347.5 Z  M 480.41212 351.5 C 479.86212 351.5 479.41212 351.95 479.41212 352.5 C 479.41212 353.05 479.86212 353.5 480.41212 353.5 C 480.96212 353.5 481.41212 353.05 481.41212 352.5 C 481.41212 351.95 480.96212 351.5 480.41212 351.5 Z " fill="rgb(0,0,0)"/><path d=" M 526.91212 326.5 L 628.41212 325.54938 L 627.43616 325.542 L 628.41212 325.54938 L 628.41212 249.5" fill="none" vector-effect="non-scaling-stroke" stroke-width="1" stroke="rgb(0,0,0)" stroke-linejoin="round" stroke-linecap="square" stroke-miterlimit="3"/><path d=" M 531.36509 321.45808 L 521.41236 326.55151 L 531.45875 331.45764 Z " fill="rgb(0,0,0)" stroke="none"/><g transform="matrix(1,0,0,1,432.91212,21.43457)"><text transform="matrix(1,0,0,1,0,14.96387)" style="font-family:&quot;Open Sans&quot;;font-weight:400;font-size:14px;font-style:normal;fill:#000000;stroke:none;">Inconsistent requirements</text></g><g transform="matrix(1,0,0,1,173.41212,21.43457)"><text transform="matrix(1,0,0,1,0,14.96387)" style="font-family:&quot;Open Sans&quot;;font-weight:400;font-size:14px;font-style:normal;fill:#000000;stroke:none;">Needed knowledge</text></g><g transform="matrix(1,0,0,1,365.29558,170.5382)"><text transform="matrix(1,0,0,1,0,14.96387)" style="font-family:&quot;Open Sans&quot;;font-weight:400;font-size:14px;font-style:normal;fill:#000000;stroke:none;">New </text><text transform="matrix(1,0,0,1,0,34.0293)" style="font-family:&quot;Open Sans&quot;;font-weight:400;font-size:14px;font-style:normal;fill:#000000;stroke:none;">knowledge</text></g><g transform="matrix(1,0,0,1,372.41212,297.90186)"><text transform="matrix(1,0,0,1,18.71777,14.96387)" style="font-family:&quot;Open Sans&quot;;font-weight:400;font-size:14px;font-style:normal;fill:#000000;stroke:none;">Structured </text><text transform="matrix(1,0,0,1,0,34.0293)" style="font-family:&quot;Open Sans&quot;;font-weight:400;font-size:14px;font-style:normal;fill:#000000;stroke:none;">requirements </text><text transform="matrix(1,0,0,1,6.41309,53.09473)" style="font-family:&quot;Open Sans&quot;;font-weight:400;font-size:14px;font-style:normal;fill:#000000;stroke:none;">specification</text></g><g transform="matrix(1,0,0,1,507.91212,259.771)"><text transform="matrix(1,0,0,1,2.62158,14.96387)" style="font-family:&quot;Open Sans&quot;;font-weight:400;font-size:14px;font-style:normal;fill:#000000;stroke:none;">New/modified </text><text transform="matrix(1,0,0,1,36.06299,34.0293)" style="font-family:&quot;Open Sans&quot;;font-weight:400;font-size:14px;font-style:normal;fill:#000000;stroke:none;">req.</text></g></g></svg>